<svg xmlns="http://www.w3.org/2000/svg" xmlns:xlink="http://www.w3.org/1999/xlink" id="processonSvg1000" viewBox="200.0 91.0 451.0 329.0" width="451.0" height="329.0"><defs id="ProcessOnDefs1001"/><g id="ProcessOnG1002"><path id="ProcessOnPath1003" d="M200.0 91.0H651.0V420.0H200.0V91.0Z" fill="none"/><g id="ProcessOnG1004"><g id="ProcessOnG1005" transform="matrix(1.0,0.0,0.0,1.0,224.0,218.0)" opacity="1.0"><path id="ProcessOnPath1006" d="M0.0 4.0Q0.0 0.0 4.0 0.0L399.0 0.0Q403.0 0.0 403.0 4.0L403.0 158.5Q403.0 162.5 399.0 162.5L4.0 162.5Q0.0 162.5 0.0 158.5Z" stroke="#ffb366" stroke-width="2.0" stroke-dasharray="none" opacity="1.0" fill="#ffffff"/></g><g id="ProcessOnG1007" transform="matrix(1.0,0.0,0.0,1.0,220.0,367.0)" opacity="1.0"><path id="ProcessOnPath1008" d="M0.0 4.0Q0.0 0.0 4.0 0.0L407.0 0.0Q411.0 0.0 411.0 4.0L411.0 29.0Q411.0 33.0 407.0 33.0L4.0 33.0Q0.0 33.0 0.0 29.0Z" stroke="#ffb366" stroke-width="2.0" stroke-dasharray="none" opacity="1.0" fill="#ff9933"/><g id="ProcessOnG1009" transform="matrix(1.0,0.0,0.0,1.0,10.0,8.375)"><text id="ProcessOnText1010" fill="#000000" font-size="13" x="194.5" y="13.325" font-family="微软雅黑" font-weight="normal" font-style="normal" text-decoration="none" family="微软雅黑" text-anchor="middle" size="13">JVM</text></g></g><g id="ProcessOnG1011" transform="matrix(1.0,0.0,0.0,1.0,242.0,264.0)" opacity="1.0"><path id="ProcessOnPath1012" d="M0.0 4.0Q0.0 0.0 4.0 0.0L56.0 0.0Q60.0 0.0 60.0 4.0L60.0 93.0Q60.0 97.0 56.0 97.0L4.0 97.0Q0.0 97.0 0.0 93.0Z" stroke="#323232" stroke-width="2.0" stroke-dasharray="none" opacity="1.0" fill="#ffff00"/><g id="ProcessOnG1013" transform="matrix(1.0,0.0,0.0,1.0,10.0,32.25)"><text id="ProcessOnText1014" fill="#000000" font-size="13" x="19.0" y="13.325" font-family="微软雅黑" font-weight="normal" font-style="normal" text-decoration="none" family="微软雅黑" text-anchor="middle" size="13">方法</text><text id="ProcessOnText1015" fill="#000000" font-size="13" x="19.0" y="29.575" font-family="微软雅黑" font-weight="normal" font-style="normal" text-decoration="none" family="微软雅黑" text-anchor="middle" size="13">区</text></g></g><g id="ProcessOnG1016" transform="matrix(1.0,0.0,0.0,1.0,311.0,264.0)" opacity="1.0"><path id="ProcessOnPath1017" d="M0.0 4.0Q0.0 0.0 4.0 0.0L56.0 0.0Q60.0 0.0 60.0 4.0L60.0 93.0Q60.0 97.0 56.0 97.0L4.0 97.0Q0.0 97.0 0.0 93.0Z" stroke="#323232" stroke-width="2.0" stroke-dasharray="none" opacity="1.0" fill="#ff6666"/><g id="ProcessOnG1018" transform="matrix(1.0,0.0,0.0,1.0,10.0,40.375)"><text id="ProcessOnText1019" fill="#000000" font-size="13" x="19.0" y="13.325" font-family="微软雅黑" font-weight="normal" font-style="normal" text-decoration="none" family="微软雅黑" text-anchor="middle" size="13">堆</text></g></g><g id="ProcessOnG1020"><path id="ProcessOnPath1021" d="M425.5 226.0L425.5 296.5L425.5 296.5L425.5 367.0" stroke="#323232" stroke-width="2.0" stroke-dasharray="2.0 3.0" fill="none"/></g><g id="ProcessOnG1022" transform="matrix(1.0,0.0,0.0,1.0,464.0,330.0)" opacity="1.0"><path id="ProcessOnPath1023" d="M0.0 4.0Q0.0 0.0 4.0 0.0L143.0 0.0Q147.0 0.0 147.0 4.0L147.0 28.0Q147.0 32.0 143.0 32.0L4.0 32.0Q0.0 32.0 0.0 28.0Z" stroke="#323232" stroke-width="2.0" stroke-dasharray="none" opacity="1.0" fill="#99ccff"/><g id="ProcessOnG1024" transform="matrix(1.0,0.0,0.0,1.0,10.0,7.875)"><text id="ProcessOnText1025" fill="#000000" font-size="13" x="62.5" y="13.325" font-family="微软雅黑" font-weight="normal" font-style="normal" text-decoration="none" family="微软雅黑" text-anchor="middle" size="13">本地方法栈</text></g></g><g id="ProcessOnG1026" transform="matrix(1.0,0.0,0.0,1.0,464.0,293.0)" opacity="1.0"><path id="ProcessOnPath1027" d="M0.0 4.0Q0.0 0.0 4.0 0.0L143.0 0.0Q147.0 0.0 147.0 4.0L147.0 28.0Q147.0 32.0 143.0 32.0L4.0 32.0Q0.0 32.0 0.0 28.0Z" stroke="#323232" stroke-width="2.0" stroke-dasharray="none" opacity="1.0" fill="#99ccff"/><g id="ProcessOnG1028" transform="matrix(1.0,0.0,0.0,1.0,10.0,7.875)"><text id="ProcessOnText1029" fill="#000000" font-size="13" x="62.5" y="13.325" font-family="微软雅黑" font-weight="normal" font-style="normal" text-decoration="none" family="微软雅黑" text-anchor="middle" size="13">Java方法栈</text></g></g><g id="ProcessOnG1030" transform="matrix(1.0,0.0,0.0,1.0,464.0,254.0)" opacity="1.0"><path id="ProcessOnPath1031" d="M0.0 4.0Q0.0 0.0 4.0 0.0L143.0 0.0Q147.0 0.0 147.0 4.0L147.0 28.0Q147.0 32.0 143.0 32.0L4.0 32.0Q0.0 32.0 0.0 28.0Z" stroke="#323232" stroke-width="2.0" stroke-dasharray="none" opacity="1.0" fill="#99ccff"/><g id="ProcessOnG1032" transform="matrix(1.0,0.0,0.0,1.0,10.0,7.875)"><text id="ProcessOnText1033" fill="#000000" font-size="13" x="62.5" y="13.325" font-family="微软雅黑" font-weight="normal" font-style="normal" text-decoration="none" family="微软雅黑" text-anchor="middle" size="13">PC寄存器</text></g></g><g id="ProcessOnG1034" transform="matrix(1.0,0.0,0.0,1.0,231.0,221.0)" opacity="1.0"><path id="ProcessOnPath1035" d="M0.0 0.0L160.0 0.0L160.0 40.0L0.0 40.0Z" stroke="none" stroke-width="0.0" stroke-dasharray="none" opacity="1.0" fill="none"/><g id="ProcessOnG1036" transform="matrix(1.0,0.0,0.0,1.0,0.0,11.875)"><text id="ProcessOnText1037" fill="#000000" font-size="13" x="79.0" y="13.325" font-family="微软雅黑" font-weight="normal" font-style="normal" text-decoration="none" family="微软雅黑" text-anchor="middle" size="13">线程共享</text></g></g><g id="ProcessOnG1038" transform="matrix(1.0,0.0,0.0,1.0,464.0,218.0)" opacity="1.0"><path id="ProcessOnPath1039" d="M0.0 0.0L160.0 0.0L160.0 40.0L0.0 40.0Z" stroke="none" stroke-width="0.0" stroke-dasharray="none" opacity="1.0" fill="none"/><g id="ProcessOnG1040" transform="matrix(1.0,0.0,0.0,1.0,0.0,11.875)"><text id="ProcessOnText1041" fill="#000000" font-size="13" x="79.0" y="13.325" font-family="微软雅黑" font-weight="normal" font-style="normal" text-decoration="none" family="微软雅黑" text-anchor="middle" size="13">线程私有</text></g></g><g id="ProcessOnG1042" transform="matrix(1.0,0.0,0.0,1.0,272.5,181.0)" opacity="1.0"><path id="ProcessOnPath1043" d="M12.705 0.0L25.795 0.0L25.795 20.349999999999998L38.5 20.349999999999998L19.25 37.0L0.0 20.349999999999998L12.705 20.349999999999998L12.705 0.0Z" stroke="#323232" stroke-width="2.0" stroke-dasharray="none" opacity="1.0" fill="#ffffff"/></g><g id="ProcessOnG1044" transform="matrix(1.0,0.0,0.0,1.0,242.0,111.0)" opacity="1.0"><path id="ProcessOnPath1045" d="M0.0 0.0L84.0 0.0L100.0 16.0L100.0 70.0L0.0 70.0L0.0 0.0Z" stroke="#323232" stroke-width="2.0" stroke-dasharray="none" opacity="1.0" fill="#ffff00"/><path id="ProcessOnPath1046" d="M84.0 0.0L84.0 16.0L100.0 16.0" stroke="#323232" stroke-width="2.0" stroke-dasharray="none" opacity="1.0" fill="#ffff00"/><path id="ProcessOnPath1047" d="M0.0 0.0L84.0 0.0L100.0 16.0L100.0 70.0L0.0 70.0L0.0 0.0Z" stroke="#323232" stroke-width="2.0" stroke-dasharray="none" opacity="1.0" fill="none"/><g id="ProcessOnG1048" transform="matrix(1.0,0.0,0.0,1.0,10.0,26.875)"><text id="ProcessOnText1049" fill="#000000" font-size="13" x="39.0" y="13.325" font-family="微软雅黑" font-weight="normal" font-style="normal" text-decoration="none" family="微软雅黑" text-anchor="middle" size="13">.class 文件</text></g></g></g></g></svg>