<svg xmlns="http://www.w3.org/2000/svg" xmlns:xlink="http://www.w3.org/1999/xlink" id="processonSvg1000" viewBox="99.5 31.0 515.0 384.0" width="515.0" height="384.0"><defs id="ProcessOnDefs1001"/><g id="ProcessOnG1002"><path id="ProcessOnPath1003" d="M99.5 31.0H614.5V415.0H99.5V31.0Z" fill="none"/><g id="ProcessOnG1004"><g id="ProcessOnG1005" transform="matrix(1.0,0.0,0.0,1.0,196.0,51.0)" opacity="1.0"><path id="ProcessOnPath1006" d="M0.0 0.0L53.0 0.0L69.0 16.0L69.0 61.0L0.0 61.0L0.0 0.0Z" stroke="#323232" stroke-width="2.0" stroke-dasharray="none" opacity="1.0" fill="#ffff99"/><path id="ProcessOnPath1007" d="M53.0 0.0L53.0 16.0L69.0 16.0" stroke="#323232" stroke-width="2.0" stroke-dasharray="none" opacity="1.0" fill="#ffff99"/><path id="ProcessOnPath1008" d="M0.0 0.0L53.0 0.0L69.0 16.0L69.0 61.0L0.0 61.0L0.0 0.0Z" stroke="#323232" stroke-width="2.0" stroke-dasharray="none" opacity="1.0" fill="none"/><g id="ProcessOnG1009" transform="matrix(1.0,0.0,0.0,1.0,10.0,14.25)"><text id="ProcessOnText1010" fill="#000000" font-size="13" x="23.5" y="13.325" font-family="微软雅黑" font-weight="normal" font-style="normal" text-decoration="none" family="微软雅黑" text-anchor="middle" size="13">.class </text><text id="ProcessOnText1011" fill="#000000" font-size="13" x="23.5" y="29.575" font-family="微软雅黑" font-weight="normal" font-style="normal" text-decoration="none" family="微软雅黑" text-anchor="middle" size="13">文件</text></g></g><g id="ProcessOnG1012" transform="matrix(1.0,0.0,0.0,1.0,177.0,356.0)" opacity="1.0"><path id="ProcessOnPath1013" d="M0.0 4.0Q0.0 0.0 4.0 0.0L371.0 0.0Q375.0 0.0 375.0 4.0L375.0 35.0Q375.0 39.0 371.0 39.0L4.0 39.0Q0.0 39.0 0.0 35.0Z" stroke="#323232" stroke-width="2.0" stroke-dasharray="none" opacity="1.0" fill="#ffff66"/><g id="ProcessOnG1014" transform="matrix(1.0,0.0,0.0,1.0,10.0,11.375)"><text id="ProcessOnText1015" fill="#000000" font-size="13" x="176.5" y="13.325" font-family="微软雅黑" font-weight="normal" font-style="normal" text-decoration="none" family="微软雅黑" text-anchor="middle" size="13">底层硬件</text></g></g><g id="ProcessOnG1016" transform="matrix(1.0,0.0,0.0,1.0,428.0,51.0)" opacity="1.0"><path id="ProcessOnPath1017" d="M0.0 0.0L53.0 0.0L69.0 16.0L69.0 61.0L0.0 61.0L0.0 0.0Z" stroke="#323232" stroke-width="2.0" stroke-dasharray="none" opacity="1.0" fill="#ffff99"/><path id="ProcessOnPath1018" d="M53.0 0.0L53.0 16.0L69.0 16.0" stroke="#323232" stroke-width="2.0" stroke-dasharray="none" opacity="1.0" fill="#ffff99"/><path id="ProcessOnPath1019" d="M0.0 0.0L53.0 0.0L69.0 16.0L69.0 61.0L0.0 61.0L0.0 0.0Z" stroke="#323232" stroke-width="2.0" stroke-dasharray="none" opacity="1.0" fill="none"/><g id="ProcessOnG1020" transform="matrix(1.0,0.0,0.0,1.0,10.0,14.25)"><text id="ProcessOnText1021" fill="#000000" font-size="13" x="23.5" y="13.325" font-family="微软雅黑" font-weight="normal" font-style="normal" text-decoration="none" family="微软雅黑" text-anchor="middle" size="13">.class </text><text id="ProcessOnText1022" fill="#000000" font-size="13" x="23.5" y="29.575" font-family="微软雅黑" font-weight="normal" font-style="normal" text-decoration="none" family="微软雅黑" text-anchor="middle" size="13">文件</text></g></g><g id="ProcessOnG1023" transform="matrix(1.0,0.0,0.0,1.0,181.0,180.0)" opacity="1.0"><path id="ProcessOnPath1024" d="M0.0 4.0Q0.0 0.0 4.0 0.0L363.0 0.0Q367.0 0.0 367.0 4.0L367.0 121.0Q367.0 125.0 363.0 125.0L4.0 125.0Q0.0 125.0 0.0 121.0Z" stroke="#323232" stroke-width="2.0" stroke-dasharray="none" opacity="1.0" fill="#66ffb3"/></g><g id="ProcessOnG1025" transform="matrix(1.0,0.0,0.0,1.0,284.5,272.0)" opacity="1.0"><path id="ProcessOnPath1026" d="M0.0 0.0L160.0 0.0L160.0 40.0L0.0 40.0Z" stroke="none" stroke-width="0.0" stroke-dasharray="none" opacity="1.0" fill="none"/><g id="ProcessOnG1027" transform="matrix(1.0,0.0,0.0,1.0,0.0,11.875)"><text id="ProcessOnText1028" fill="#000000" font-size="13" x="79.0" y="13.325" font-family="微软雅黑" font-weight="bold" font-style="normal" text-decoration="none" family="微软雅黑" text-anchor="middle" size="13">JVM</text></g></g><g id="ProcessOnG1029" transform="matrix(1.0,0.0,0.0,1.0,203.0,212.0)" opacity="1.0"><path id="ProcessOnPath1030" d="M0.0 4.0Q0.0 0.0 4.0 0.0L103.0 0.0Q107.0 0.0 107.0 4.0L107.0 42.0Q107.0 46.0 103.0 46.0L4.0 46.0Q0.0 46.0 0.0 42.0Z" stroke="#323232" stroke-width="2.0" stroke-dasharray="none" opacity="1.0" fill="#ccff99"/><g id="ProcessOnG1031" transform="matrix(1.0,0.0,0.0,1.0,10.0,14.875)"><text id="ProcessOnText1032" fill="#000000" font-size="13" x="42.5" y="13.325" font-family="微软雅黑" font-weight="normal" font-style="normal" text-decoration="none" family="微软雅黑" text-anchor="middle" size="13">解释执行器</text></g></g><g id="ProcessOnG1033" transform="matrix(1.0,0.0,0.0,1.0,406.0,191.0)" opacity="1.0"><path id="ProcessOnPath1034" d="M0.0 4.0Q0.0 0.0 4.0 0.0L109.0 0.0Q113.0 0.0 113.0 4.0L113.0 30.0Q113.0 34.0 109.0 34.0L4.0 34.0Q0.0 34.0 0.0 30.0Z" stroke="#323232" stroke-width="2.0" stroke-dasharray="none" opacity="1.0" fill="#ffffcc"/><g id="ProcessOnG1035" transform="matrix(1.0,0.0,0.0,1.0,10.0,8.875)"><text id="ProcessOnText1036" fill="#000000" font-size="13" x="45.5" y="13.325" font-family="微软雅黑" font-weight="normal" font-style="normal" text-decoration="none" family="微软雅黑" text-anchor="middle" size="13">即时编译器</text></g></g><g id="ProcessOnG1037" transform="matrix(1.0,0.0,0.0,1.0,406.0,252.0)" opacity="1.0"><path id="ProcessOnPath1038" d="M0.0 4.0Q0.0 0.0 4.0 0.0L109.0 0.0Q113.0 0.0 113.0 4.0L113.0 30.0Q113.0 34.0 109.0 34.0L4.0 34.0Q0.0 34.0 0.0 30.0Z" stroke="#323232" stroke-width="2.0" stroke-dasharray="none" opacity="1.0" fill="#ffffcc"/><g id="ProcessOnG1039" transform="matrix(1.0,0.0,0.0,1.0,10.0,8.875)"><text id="ProcessOnText1040" fill="#000000" font-size="13" x="45.5" y="13.325" font-family="微软雅黑" font-weight="normal" font-style="normal" text-decoration="none" family="微软雅黑" text-anchor="middle" size="13">编译结果</text></g></g><g id="ProcessOnG1041"><path id="ProcessOnPath1042" d="M361.0 190.0L361.0 233.0L361.0 233.0L361.0 276.0" stroke="#323232" stroke-width="2.0" stroke-dasharray="2.0 3.0" fill="none"/></g><g id="ProcessOnG1043" transform="matrix(1.0,0.0,0.0,1.0,213.0,124.0)" opacity="1.0"><path id="ProcessOnPath1044" d="M13.200000000000001 0.0L26.8 0.0L26.8 26.0L40.0 26.0L20.0 46.0L0.0 26.0L13.200000000000001 26.0L13.200000000000001 0.0Z" stroke="#323232" stroke-width="2.0" stroke-dasharray="none" opacity="1.0" fill="#ffffcc"/></g><g id="ProcessOnG1045" transform="matrix(1.0,0.0,0.0,1.0,439.0,124.0)" opacity="1.0"><path id="ProcessOnPath1046" d="M13.200000000000001 0.0L26.8 0.0L26.8 26.0L40.0 26.0L20.0 46.0L0.0 26.0L13.200000000000001 26.0L13.200000000000001 0.0Z" stroke="#323232" stroke-width="2.0" stroke-dasharray="none" opacity="1.0" fill="#ffffcc"/></g><g id="ProcessOnG1047" transform="matrix(1.0,0.0,0.0,1.0,219.0,308.0)" opacity="1.0"><path id="ProcessOnPath1048" d="M13.530000000000001 0.0L27.470000000000002 0.0L27.470000000000002 26.5L41.0 26.5L20.5 47.0L0.0 26.5L13.530000000000001 26.5L13.530000000000001 0.0Z" stroke="#323232" stroke-width="2.0" stroke-dasharray="none" opacity="1.0" fill="#ffffcc"/></g><g id="ProcessOnG1049" transform="matrix(1.0,0.0,0.0,1.0,442.5,309.0)" opacity="1.0"><path id="ProcessOnPath1050" d="M13.200000000000001 0.0L26.8 0.0L26.8 26.0L40.0 26.0L20.0 46.0L0.0 26.0L13.200000000000001 26.0L13.200000000000001 0.0Z" stroke="#323232" stroke-width="2.0" stroke-dasharray="none" opacity="1.0" fill="#ffffcc"/></g><g id="ProcessOnG1051" transform="matrix(1.0,0.0,0.0,1.0,442.5,227.0)" opacity="1.0"><path id="ProcessOnPath1052" d="M11.55 0.0L23.450000000000003 0.0L23.450000000000003 13.75L35.0 13.75L17.5 25.0L0.0 13.75L11.55 13.75L11.55 0.0Z" stroke="#323232" stroke-width="2.0" stroke-dasharray="none" opacity="1.0" fill="#ffffff"/></g><g id="ProcessOnG1053" transform="matrix(1.0,0.0,0.0,1.0,119.5,302.0)" opacity="1.0"><path id="ProcessOnPath1054" d="M0.0 0.0L160.0 0.0L160.0 40.0L0.0 40.0Z" stroke="none" stroke-width="0.0" stroke-dasharray="none" opacity="1.0" fill="none"/><g id="ProcessOnG1055" transform="matrix(1.0,0.0,0.0,1.0,0.0,11.875)"><text id="ProcessOnText1056" fill="#000000" font-size="13" x="79.0" y="13.325" font-family="微软雅黑" font-weight="bold" font-style="normal" text-decoration="none" family="微软雅黑" text-anchor="middle" size="13">解释执行</text></g></g><g id="ProcessOnG1057" transform="matrix(1.0,0.0,0.0,1.0,434.5,309.0)" opacity="1.0"><path id="ProcessOnPath1058" d="M0.0 0.0L160.0 0.0L160.0 40.0L0.0 40.0Z" stroke="none" stroke-width="0.0" stroke-dasharray="none" opacity="1.0" fill="none"/><g id="ProcessOnG1059" transform="matrix(1.0,0.0,0.0,1.0,0.0,11.875)"><text id="ProcessOnText1060" fill="#000000" font-size="13" x="79.0" y="13.325" font-family="微软雅黑" font-weight="bold" font-style="normal" text-decoration="none" family="微软雅黑" text-anchor="middle" size="13">直接运行</text></g></g></g></g></svg>